<svg xmlns="http://www.w3.org/2000/svg" viewBox="0 0 1200 750" role="img" aria-label="Auto detailing website mockup" shape-rendering="geometricPrecision" text-rendering="geometricPrecision">
  <defs>
    <linearGradient id="bg" x1="0" y1="0" x2="0" y2="1">
      <stop offset="0%" stop-color="#f7f0ff"/>
      <stop offset="52%" stop-color="#b78cff"/>
      <stop offset="100%" stop-color="#25d6c9"/>
    </linearGradient>
    <filter id="shadow" x="-20%" y="-20%" width="140%" height="140%">
      <feDropShadow dx="0" dy="18" stdDeviation="18" flood-color="#251847" flood-opacity="0.24"/>
    </filter>
  </defs>
  <rect width="1200" height="750" fill="url(#bg)"/>
  <circle cx="1060" cy="120" r="150" fill="#fff" opacity="0.18"/>
  <circle cx="140" cy="610" r="210" fill="#7d58ef" opacity="0.12"/>
  <g filter="url(#shadow)">
    <rect x="72" y="56" width="1056" height="638" rx="42" fill="#fbf8ff"/>
    <rect x="72" y="56" width="1056" height="56" rx="42" fill="#ece3ff"/>
    <circle cx="114" cy="84" r="8" fill="#ff6b57"/>
    <circle cx="138" cy="84" r="8" fill="#ffbf4d"/>
    <circle cx="162" cy="84" r="8" fill="#59d58f"/>
    <rect x="260" y="72" width="682" height="28" rx="14" fill="#fff" stroke="#d8ccff"/>
    <rect x="946" y="70" width="132" height="32" rx="16" fill="#fff" stroke="#d8ccff"/>
    <text x="298" y="91" font-family="Arial, sans-serif" font-size="14" fill="#7b62ff">glosslineauto.com/studio</text>
    <text x="962" y="91" font-family="Arial, sans-serif" font-size="14" font-weight="700" fill="#7b62ff">DETAILING</text>

    <rect x="114" y="142" width="972" height="492" rx="32" fill="#fff" stroke="#e0d4ff"/>
    <text x="160" y="184" font-family="Arial, sans-serif" font-size="22" font-weight="700" fill="#14161f">GlossLine Auto Studio</text>
    <text x="428" y="184" font-family="Arial, sans-serif" font-size="15" fill="#5d6d85">Wash • Ceramic • Paint correction • Interior reset</text>
    <rect x="884" y="164" width="156" height="34" rx="17" fill="#7b62ff"/>
    <text x="910" y="186" font-family="Arial, sans-serif" font-size="14" font-weight="700" fill="#fff">Book detail</text>

    <rect x="160" y="228" width="446" height="250" rx="28" fill="#fff" stroke="#e0d4ff"/>
    <text x="194" y="280" font-family="Arial, sans-serif" font-size="42" font-weight="700" fill="#14161f">Premium detailing</text>
    <text x="194" y="332" font-family="Arial, sans-serif" font-size="42" font-weight="700" fill="#14161f">with a showroom</text>
    <text x="194" y="384" font-family="Arial, sans-serif" font-size="42" font-weight="700" fill="#14161f">finish.</text>
    <text x="194" y="420" font-family="Arial, sans-serif" font-size="15" fill="#5d6d85">Paint-safe wash, ceramic protection, and interior reset packages.</text>
    <rect x="194" y="440" width="148" height="34" rx="17" fill="#7b62ff"/>
    <text x="215" y="462" font-family="Arial, sans-serif" font-size="14" font-weight="700" fill="#fff">See packages</text>
    <rect x="352" y="440" width="140" height="34" rx="17" fill="#fff" stroke="#cab9ff"/>
    <text x="372" y="462" font-family="Arial, sans-serif" font-size="14" font-weight="700" fill="#7b62ff">Before / after</text>

    <rect x="634" y="228" width="404" height="250" rx="30" fill="#121524"/>
    <text x="668" y="272" font-family="Arial, sans-serif" font-size="18" font-weight="700" fill="#fff">Showroom-level finish</text>
    <text x="668" y="300" font-family="Arial, sans-serif" font-size="14" fill="#c6d3ff">Ceramic • polish • wheels • interior reset</text>
    <rect x="668" y="336" width="330" height="126" rx="28" fill="#0f1118"/>
    <polygon points="696,388 744,350 894,350 944,388 970,438 970,462 686,462" fill="#1b2135"/>
    <circle cx="742" cy="462" r="32" fill="#0f1118"/>
    <circle cx="918" cy="462" r="32" fill="#0f1118"/>
    <circle cx="742" cy="462" r="14" fill="#cdbfff"/>
    <circle cx="918" cy="462" r="14" fill="#cdbfff"/>
    <line x1="688" y1="388" x2="978" y2="388" stroke="#7b62ff" stroke-width="5"/>
    <line x1="724" y1="366" x2="860" y2="366" stroke="#25d6c9" stroke-width="4"/>

    <rect x="160" y="512" width="192" height="88" rx="20" fill="#fff" stroke="#e0d4ff"/>
    <rect x="178" y="530" width="38" height="38" rx="12" fill="#efe8ff"/>
    <text x="230" y="544" font-family="Arial, sans-serif" font-size="18" font-weight="700" fill="#14161f">Wash</text>
    <text x="230" y="570" font-family="Arial, sans-serif" font-size="14" fill="#5d6d85">$149</text>

    <rect x="364" y="512" width="192" height="88" rx="20" fill="#fff" stroke="#e0d4ff"/>
    <rect x="382" y="530" width="38" height="38" rx="12" fill="#edfff9"/>
    <text x="434" y="544" font-family="Arial, sans-serif" font-size="18" font-weight="700" fill="#14161f">Ceramic</text>
    <text x="434" y="570" font-family="Arial, sans-serif" font-size="14" fill="#5d6d85">$349</text>

    <rect x="568" y="512" width="192" height="88" rx="20" fill="#fff" stroke="#e0d4ff"/>
    <rect x="586" y="530" width="38" height="38" rx="12" fill="#efe8ff"/>
    <text x="638" y="544" font-family="Arial, sans-serif" font-size="18" font-weight="700" fill="#14161f">Interior</text>
    <text x="638" y="570" font-family="Arial, sans-serif" font-size="14" fill="#5d6d85">$199</text>

    <rect x="772" y="512" width="192" height="88" rx="20" fill="#fff" stroke="#e0d4ff"/>
    <rect x="790" y="530" width="38" height="38" rx="12" fill="#efe8ff"/>
    <text x="842" y="544" font-family="Arial, sans-serif" font-size="18" font-weight="700" fill="#14161f">4.9★</text>
    <text x="842" y="570" font-family="Arial, sans-serif" font-size="14" fill="#5d6d85">shine score</text>
  </g>
</svg>