<svg xmlns="http://www.w3.org/2000/svg" viewBox="0 0 1200 750" role="img" aria-label="Auto detailing website mockup">
  <defs>
    <linearGradient id="bg" x1="0" y1="0" x2="1" y2="1">
      <stop offset="0%" stop-color="#f2ecff"/>
      <stop offset="40%" stop-color="#b589ff"/>
      <stop offset="100%" stop-color="#35d6c6"/>
    </linearGradient>
    <linearGradient id="screen" x1="0" y1="0" x2="1" y2="1">
      <stop offset="0%" stop-color="#12141e"/>
      <stop offset="100%" stop-color="#232a42"/>
    </linearGradient>
    <linearGradient id="cta" x1="0" y1="0" x2="1" y2="0">
      <stop offset="0%" stop-color="#bfa3ff"/>
      <stop offset="100%" stop-color="#9ff2e5"/>
    </linearGradient>
    <filter id="shadow" x="-25%" y="-25%" width="150%" height="150%">
      <feDropShadow dx="0" dy="24" stdDeviation="28" flood-color="#27184a" flood-opacity="0.28"/>
    </filter>
  </defs>
  <rect width="1200" height="750" fill="url(#bg)"/>
  <circle cx="1060" cy="120" r="170" fill="#fff" opacity="0.18"/>
  <circle cx="160" cy="620" r="220" fill="#7d58ef" opacity="0.12"/>
  <path d="M0 612c120-60 236-72 352-44s198 100 320 100 262-38 528-170v252H0Z" fill="#fff" opacity="0.14"/>

  <g filter="url(#shadow)">
    <rect x="116" y="90" width="968" height="564" rx="38" fill="#f8f6ff"/>
    <rect x="116" y="90" width="968" height="58" rx="38" fill="#e6ddff"/>
    <circle cx="154" cy="119" r="8" fill="#ff6b57"/>
    <circle cx="178" cy="119" r="8" fill="#ffb84d"/>
    <circle cx="202" cy="119" r="8" fill="#47c97f"/>

    <rect x="160" y="184" width="318" height="18" rx="9" fill="#7f65ff"/>
    <rect x="160" y="218" width="390" height="18" rx="9" fill="#171b28"/>
    <rect x="160" y="254" width="268" height="12" rx="6" fill="#7580a4"/>
    <rect x="160" y="286" width="196" height="50" rx="25" fill="url(#cta)"/>
    <text x="258" y="318" font-family="Arial, sans-serif" font-size="18" font-weight="700" fill="#14161f" text-anchor="middle">Book detail</text>
    <rect x="368" y="286" width="196" height="50" rx="25" fill="#fff" stroke="#c2b1ff"/>
    <text x="466" y="318" font-family="Arial, sans-serif" font-size="18" font-weight="700" fill="#7f65ff" text-anchor="middle">Packages</text>

    <rect x="160" y="366" width="240" height="170" rx="24" fill="#fff" stroke="#d8cbff"/>
    <rect x="420" y="366" width="240" height="170" rx="24" fill="#fff" stroke="#d8cbff"/>
    <rect x="680" y="366" width="244" height="170" rx="24" fill="#fff" stroke="#d8cbff"/>

    <path d="M182 482h138" stroke="#bfa3ff" stroke-width="10" stroke-linecap="round"/>
    <path d="M182 456h94" stroke="#171b28" stroke-width="10" stroke-linecap="round" opacity="0.88"/>
    <rect x="180" y="406" width="78" height="34" rx="17" fill="#efe9ff"/>
    <path d="M200 416h38" stroke="#7f65ff" stroke-width="5" stroke-linecap="round"/>
    <path d="M200 426h24" stroke="#7f65ff" stroke-width="5" stroke-linecap="round"/>

    <path d="M440 488h132" stroke="#bfa3ff" stroke-width="10" stroke-linecap="round"/>
    <path d="M440 456h96" stroke="#171b28" stroke-width="10" stroke-linecap="round" opacity="0.88"/>
    <rect x="438" y="406" width="78" height="34" rx="17" fill="#efe9ff"/>
    <path d="M458 416h38" stroke="#7f65ff" stroke-width="5" stroke-linecap="round"/>
    <path d="M458 426h24" stroke="#7f65ff" stroke-width="5" stroke-linecap="round"/>

    <path d="M706 484h154" stroke="#35d6c6" stroke-width="10" stroke-linecap="round"/>
    <path d="M706 456h112" stroke="#171b28" stroke-width="10" stroke-linecap="round" opacity="0.88"/>
    <rect x="706" y="406" width="78" height="34" rx="17" fill="#ebfff8"/>
    <path d="M726 416h38" stroke="#35a99d" stroke-width="5" stroke-linecap="round"/>
    <path d="M726 426h24" stroke="#35a99d" stroke-width="5" stroke-linecap="round"/>
  </g>

  <text x="116" y="620" font-family="Arial, sans-serif" font-size="15" letter-spacing="2" fill="#5632a7">AUTO DETAILING WEBSITE MOCKUP</text>
</svg>