<svg xmlns="http://www.w3.org/2000/svg" viewBox="0 0 1200 750" role="img" aria-label="Plumbing website mockup">
  <defs>
    <linearGradient id="bg" x1="0" y1="0" x2="1" y2="1">
      <stop offset="0%" stop-color="#e7fbff"/>
      <stop offset="45%" stop-color="#7be3ff"/>
      <stop offset="100%" stop-color="#1e7bff"/>
    </linearGradient>
    <linearGradient id="screen" x1="0" y1="0" x2="1" y2="1">
      <stop offset="0%" stop-color="#081522"/>
      <stop offset="100%" stop-color="#12365a"/>
    </linearGradient>
    <linearGradient id="cta" x1="0" y1="0" x2="1" y2="0">
      <stop offset="0%" stop-color="#7ef0ff"/>
      <stop offset="100%" stop-color="#c9fbff"/>
    </linearGradient>
    <filter id="shadow" x="-25%" y="-25%" width="150%" height="150%">
      <feDropShadow dx="0" dy="24" stdDeviation="28" flood-color="#08355e" flood-opacity="0.25"/>
    </filter>
  </defs>
  <rect width="1200" height="750" fill="url(#bg)"/>
  <circle cx="1030" cy="110" r="150" fill="#fff" opacity="0.18"/>
  <circle cx="150" cy="620" r="220" fill="#0151a6" opacity="0.12"/>
  <path d="M0 616c136-76 242-82 360-48s164 112 300 112 252-44 540-174v244H0Z" fill="#fff" opacity="0.14"/>

  <g filter="url(#shadow)">
    <rect x="112" y="88" width="976" height="566" rx="38" fill="#f6fdff"/>
    <rect x="112" y="88" width="976" height="58" rx="38" fill="#c9f5ff"/>
    <circle cx="150" cy="117" r="8" fill="#ff6b57"/>
    <circle cx="174" cy="117" r="8" fill="#ffb84d"/>
    <circle cx="198" cy="117" r="8" fill="#47c97f"/>

    <rect x="158" y="182" width="292" height="18" rx="9" fill="#1e7bff"/>
    <rect x="158" y="216" width="372" height="18" rx="9" fill="#0b2340"/>
    <rect x="158" y="252" width="258" height="12" rx="6" fill="#6e7f92"/>
    <rect x="158" y="286" width="202" height="52" rx="26" fill="url(#cta)"/>
    <text x="259" y="319" font-family="Arial, sans-serif" font-size="18" font-weight="700" fill="#062037" text-anchor="middle">Get a plumbing quote</text>
    <rect x="372" y="286" width="190" height="52" rx="26" fill="#fff" stroke="#93dff2"/>
    <text x="467" y="319" font-family="Arial, sans-serif" font-size="18" font-weight="700" fill="#1d7cff" text-anchor="middle">Emergency help</text>

    <rect x="158" y="368" width="228" height="168" rx="24" fill="#fff" stroke="#bfefff"/>
    <rect x="412" y="368" width="228" height="168" rx="24" fill="#fff" stroke="#bfefff"/>
    <rect x="666" y="368" width="270" height="168" rx="24" fill="#fff" stroke="#bfefff"/>

    <circle cx="214" cy="426" r="32" fill="#e4fbff"/>
    <path d="M201 426h26M214 413v26" stroke="#1e7bff" stroke-width="6" stroke-linecap="round"/>
    <path d="M176 490h110" stroke="#1e7bff" stroke-width="10" stroke-linecap="round"/>
    <path d="M176 464h84" stroke="#0b2340" stroke-width="10" stroke-linecap="round" opacity="0.88"/>

    <circle cx="468" cy="426" r="32" fill="#e4fbff"/>
    <path d="M455 426h26M468 413v26" stroke="#1e7bff" stroke-width="6" stroke-linecap="round"/>
    <path d="M430 490h112" stroke="#1e7bff" stroke-width="10" stroke-linecap="round"/>
    <path d="M430 464h92" stroke="#0b2340" stroke-width="10" stroke-linecap="round" opacity="0.88"/>

    <circle cx="742" cy="426" r="32" fill="#e4fbff"/>
    <path d="M729 426h26M742 413v26" stroke="#1e7bff" stroke-width="6" stroke-linecap="round"/>
    <path d="M706 490h142" stroke="#1e7bff" stroke-width="10" stroke-linecap="round"/>
    <path d="M706 464h102" stroke="#0b2340" stroke-width="10" stroke-linecap="round" opacity="0.88"/>
  </g>

  <text x="112" y="620" font-family="Arial, sans-serif" font-size="15" letter-spacing="2" fill="#07568a">PLUMBING WEBSITE MOCKUP</text>
</svg>