<svg xmlns="http://www.w3.org/2000/svg" viewBox="0 0 1200 750" role="img" aria-label="Plumbing website mockup" shape-rendering="geometricPrecision" text-rendering="geometricPrecision">
  <defs>
    <linearGradient id="bg" x1="0" y1="0" x2="0" y2="1">
      <stop offset="0%" stop-color="#f1fbff"/>
      <stop offset="52%" stop-color="#9ae7ff"/>
      <stop offset="100%" stop-color="#1a76ff"/>
    </linearGradient>
    <filter id="shadow" x="-20%" y="-20%" width="140%" height="140%">
      <feDropShadow dx="0" dy="18" stdDeviation="18" flood-color="#0d2e53" flood-opacity="0.24"/>
    </filter>
  </defs>
  <rect width="1200" height="750" fill="url(#bg)"/>
  <circle cx="1040" cy="110" r="150" fill="#fff" opacity="0.18"/>
  <circle cx="130" cy="610" r="210" fill="#0051a9" opacity="0.12"/>
  <g filter="url(#shadow)">
    <rect x="72" y="56" width="1056" height="638" rx="42" fill="#f8feff"/>
    <rect x="72" y="56" width="1056" height="56" rx="42" fill="#d8f5ff"/>
    <circle cx="114" cy="84" r="8" fill="#ff6b57"/>
    <circle cx="138" cy="84" r="8" fill="#ffbf4d"/>
    <circle cx="162" cy="84" r="8" fill="#59d58f"/>
    <rect x="260" y="72" width="682" height="28" rx="14" fill="#fff" stroke="#c5eff9"/>
    <rect x="946" y="70" width="132" height="32" rx="16" fill="#fff" stroke="#c5eff9"/>
    <text x="298" y="91" font-family="Arial, sans-serif" font-size="14" fill="#1472ff">rapidflowplumbing.com/dispatch</text>
    <text x="972" y="91" font-family="Arial, sans-serif" font-size="14" font-weight="700" fill="#1472ff">PLUMBING</text>

    <rect x="114" y="142" width="972" height="492" rx="32" fill="#fff" stroke="#c9effb"/>
    <text x="160" y="184" font-family="Arial, sans-serif" font-size="22" font-weight="700" fill="#0f1f35">RapidFlow Plumbing</text>
    <text x="404" y="184" font-family="Arial, sans-serif" font-size="15" fill="#5d7089">Emergency 24/7 • Leak repair • Water heaters • Drains</text>
    <rect x="868" y="164" width="172" height="34" rx="17" fill="#1a76ff"/>
    <text x="886" y="186" font-family="Arial, sans-serif" font-size="14" font-weight="700" fill="#fff">Request service</text>

    <rect x="160" y="228" width="458" height="250" rx="28" fill="#fff" stroke="#c9effb"/>
    <text x="194" y="280" font-family="Arial, sans-serif" font-size="43" font-weight="700" fill="#0f1f35">Emergency plumbing</text>
    <text x="194" y="332" font-family="Arial, sans-serif" font-size="43" font-weight="700" fill="#0f1f35">that actually answers</text>
    <text x="194" y="384" font-family="Arial, sans-serif" font-size="43" font-weight="700" fill="#0f1f35">fast.</text>
    <text x="194" y="420" font-family="Arial, sans-serif" font-size="15" fill="#5e7391">Burst pipe? no hot water? backup drain?</text>
    <rect x="194" y="440" width="158" height="34" rx="17" fill="#74f1ff"/>
    <text x="218" y="462" font-family="Arial, sans-serif" font-size="14" font-weight="700" fill="#0f1f35">24/7 support</text>
    <rect x="362" y="440" width="118" height="34" rx="17" fill="#fff" stroke="#a7e8f4"/>
    <text x="392" y="462" font-family="Arial, sans-serif" font-size="14" font-weight="700" fill="#1472ff">Book now</text>

    <rect x="642" y="228" width="398" height="250" rx="30" fill="#0d1b2c"/>
    <text x="676" y="272" font-family="Arial, sans-serif" font-size="18" font-weight="700" fill="#fff">Dispatch board</text>
    <text x="676" y="300" font-family="Arial, sans-serif" font-size="14" fill="#b8d5ff">8 calls today • 3 urgent • 12 in progress</text>
    <rect x="676" y="320" width="330" height="40" rx="20" fill="#fff"/>
    <text x="698" y="345" font-family="Arial, sans-serif" font-size="14" fill="#0f1f35">Immediate response queue</text>
    <rect x="926" y="328" width="62" height="24" rx="12" fill="#1a76ff"/>
    <text x="937" y="344" font-family="Arial, sans-serif" font-size="12" font-weight="700" fill="#fff">LIVE</text>
    <path d="M690 414h136v-42h120v-46h64" fill="none" stroke="#74f1ff" stroke-width="16" stroke-linecap="round" stroke-linejoin="round"/>
    <circle cx="952" cy="326" r="38" fill="#eafbff" stroke="#1a76ff" stroke-width="5"/>
    <path d="M952 302v48M928 326h48" stroke="#1a76ff" stroke-width="6" stroke-linecap="round"/>

    <rect x="160" y="512" width="192" height="88" rx="20" fill="#f3fcff" stroke="#c9effb"/>
    <circle cx="196" cy="556" r="20" fill="#ebfcff"/>
    <path d="M186 556h20" stroke="#1a76ff" stroke-width="5" stroke-linecap="round"/>
    <text x="230" y="544" font-family="Arial, sans-serif" font-size="18" font-weight="700" fill="#0f1f35">Leak</text>
    <text x="230" y="570" font-family="Arial, sans-serif" font-size="14" fill="#5e7391">repair</text>

    <rect x="364" y="512" width="192" height="88" rx="20" fill="#f3fcff" stroke="#c9effb"/>
    <circle cx="400" cy="556" r="20" fill="#ebfcff"/>
    <path d="M390 556h20" stroke="#1a76ff" stroke-width="5" stroke-linecap="round"/>
    <text x="434" y="544" font-family="Arial, sans-serif" font-size="18" font-weight="700" fill="#0f1f35">Water heater</text>
    <text x="434" y="570" font-family="Arial, sans-serif" font-size="14" fill="#5e7391">install</text>

    <rect x="568" y="512" width="192" height="88" rx="20" fill="#f3fcff" stroke="#c9effb"/>
    <circle cx="604" cy="556" r="20" fill="#ebfcff"/>
    <path d="M594 556h20" stroke="#1a76ff" stroke-width="5" stroke-linecap="round"/>
    <text x="638" y="544" font-family="Arial, sans-serif" font-size="18" font-weight="700" fill="#0f1f35">Drain</text>
    <text x="638" y="570" font-family="Arial, sans-serif" font-size="14" fill="#5e7391">cleaning</text>

    <rect x="772" y="512" width="192" height="88" rx="20" fill="#f3fcff" stroke="#c9effb"/>
    <circle cx="808" cy="556" r="20" fill="#ebfcff"/>
    <path d="M798 556h20" stroke="#1a76ff" stroke-width="5" stroke-linecap="round"/>
    <text x="842" y="544" font-family="Arial, sans-serif" font-size="18" font-weight="700" fill="#0f1f35">Camera</text>
    <text x="842" y="570" font-family="Arial, sans-serif" font-size="14" fill="#5e7391">inspection</text>
  </g>
</svg>