<svg xmlns="http://www.w3.org/2000/svg" viewBox="0 0 1200 750" role="img" aria-label="Roofing website mockup">
  <defs>
    <linearGradient id="bg" x1="0" y1="0" x2="1" y2="1">
      <stop offset="0%" stop-color="#fff3e0"/>
      <stop offset="45%" stop-color="#ffd2a8"/>
      <stop offset="100%" stop-color="#ff8a5b"/>
    </linearGradient>
    <linearGradient id="screen" x1="0" y1="0" x2="1" y2="1">
      <stop offset="0%" stop-color="#132238"/>
      <stop offset="100%" stop-color="#223b61"/>
    </linearGradient>
    <linearGradient id="cta" x1="0" y1="0" x2="1" y2="0">
      <stop offset="0%" stop-color="#ffb86b"/>
      <stop offset="100%" stop-color="#ffd7a8"/>
    </linearGradient>
    <filter id="shadow" x="-25%" y="-25%" width="150%" height="150%">
      <feDropShadow dx="0" dy="24" stdDeviation="28" flood-color="#7a2e10" flood-opacity="0.25"/>
    </filter>
  </defs>
  <rect width="1200" height="750" fill="url(#bg)"/>
  <circle cx="1110" cy="90" r="170" fill="#fff" opacity="0.25"/>
  <circle cx="120" cy="620" r="230" fill="#c75d2b" opacity="0.12"/>
  <path d="M0 610C150 530 260 520 380 560s160 98 290 98 245-52 530-170v262H0Z" fill="#ffffff" opacity="0.18"/>

  <g filter="url(#shadow)">
    <rect x="116" y="92" width="968" height="562" rx="38" fill="#fff8f1"/>
    <rect x="116" y="92" width="968" height="58" rx="38" fill="#ffe1c6"/>
    <circle cx="154" cy="121" r="8" fill="#ff6b57"/>
    <circle cx="178" cy="121" r="8" fill="#ffb84d"/>
    <circle cx="202" cy="121" r="8" fill="#47c97f"/>

    <rect x="160" y="186" width="260" height="18" rx="9" fill="#ff8a5b"/>
    <rect x="160" y="220" width="340" height="20" rx="10" fill="#243750"/>
    <rect x="160" y="254" width="250" height="12" rx="6" fill="#7d8da6"/>
    <rect x="160" y="286" width="168" height="48" rx="24" fill="url(#cta)"/>
    <text x="244" y="316" font-family="Arial, sans-serif" font-size="18" font-weight="700" fill="#1a1f2e" text-anchor="middle">Get a roof quote</text>
    <rect x="334" y="286" width="176" height="48" rx="24" fill="#fff" stroke="#f0c29f"/>
    <text x="422" y="316" font-family="Arial, sans-serif" font-size="18" font-weight="700" fill="#c2652d" text-anchor="middle">See projects</text>

    <rect x="160" y="368" width="238" height="168" rx="24" fill="#fff" stroke="#ffd2b5"/>
    <rect x="424" y="368" width="238" height="168" rx="24" fill="#fff" stroke="#ffd2b5"/>
    <rect x="688" y="368" width="238" height="168" rx="24" fill="#fff" stroke="#ffd2b5"/>

    <path d="M196 486h154" stroke="#ff8a5b" stroke-width="10" stroke-linecap="round"/>
    <path d="M196 456h118" stroke="#243750" stroke-width="10" stroke-linecap="round" opacity="0.9"/>
    <path d="M196 430h96" stroke="#a4b1c3" stroke-width="10" stroke-linecap="round" opacity="0.8"/>
    <path d="M460 486h148" stroke="#ff8a5b" stroke-width="10" stroke-linecap="round"/>
    <path d="M460 456h114" stroke="#243750" stroke-width="10" stroke-linecap="round" opacity="0.9"/>
    <path d="M460 430h92" stroke="#a4b1c3" stroke-width="10" stroke-linecap="round" opacity="0.8"/>
    <path d="M724 486h150" stroke="#ff8a5b" stroke-width="10" stroke-linecap="round"/>
    <path d="M724 456h112" stroke="#243750" stroke-width="10" stroke-linecap="round" opacity="0.9"/>
    <path d="M724 430h92" stroke="#a4b1c3" stroke-width="10" stroke-linecap="round" opacity="0.8"/>

    <path d="M192 410l54-40 54 40" fill="none" stroke="#ff8a5b" stroke-width="7" stroke-linejoin="round" stroke-linecap="round"/>
    <rect x="212" y="410" width="68" height="56" rx="10" fill="#ffe4d3" stroke="#ffbe96"/>
    <path d="M236 466v-22h20v22" fill="none" stroke="#c95b25" stroke-width="5" stroke-linecap="round"/>
    <circle cx="786" cy="424" r="28" fill="#ffb86b" opacity="0.24"/>
    <path d="M786 402l26 22-26 22-26-22Z" fill="#ff8a5b" opacity="0.85"/>
  </g>

  <text x="116" y="620" font-family="Arial, sans-serif" font-size="15" letter-spacing="2" fill="#8c4924">ROOFING WEBSITE MOCKUP</text>
</svg>