<svg xmlns="http://www.w3.org/2000/svg" viewBox="0 0 1200 750" role="img" aria-label="Roofing website mockup" shape-rendering="geometricPrecision" text-rendering="geometricPrecision">
  <defs>
    <linearGradient id="bg" x1="0" y1="0" x2="0" y2="1">
      <stop offset="0%" stop-color="#f9d7ad"/>
      <stop offset="55%" stop-color="#ff9b60"/>
      <stop offset="100%" stop-color="#27374f"/>
    </linearGradient>
    <filter id="shadow" x="-20%" y="-20%" width="140%" height="140%">
      <feDropShadow dx="0" dy="18" stdDeviation="18" flood-color="#172033" flood-opacity="0.24"/>
    </filter>
  </defs>
  <rect width="1200" height="750" fill="url(#bg)"/>
  <circle cx="1110" cy="110" r="150" fill="#fff" opacity="0.18"/>
  <circle cx="130" cy="610" r="210" fill="#f2a260" opacity="0.12"/>
  <g filter="url(#shadow)">
    <rect x="72" y="56" width="1056" height="638" rx="42" fill="#fef7f1"/>
    <rect x="72" y="56" width="1056" height="56" rx="42" fill="#f6ddcb"/>
    <circle cx="114" cy="84" r="8" fill="#ff6b57"/>
    <circle cx="138" cy="84" r="8" fill="#ffbf4d"/>
    <circle cx="162" cy="84" r="8" fill="#59d58f"/>
    <rect x="260" y="72" width="682" height="28" rx="14" fill="#fff" stroke="#f1c8a7"/>
    <rect x="946" y="70" width="132" height="32" rx="16" fill="#fff" stroke="#f1c8a7"/>
    <text x="298" y="91" font-family="Arial, sans-serif" font-size="14" fill="#9d5b30">northpeakroofing.com/home</text>
    <text x="975" y="91" font-family="Arial, sans-serif" font-size="14" font-weight="700" fill="#b55c2e">ROOFING</text>

    <rect x="114" y="142" width="972" height="492" rx="32" fill="#fffaf4" stroke="#f0d4ba"/>
    <text x="160" y="184" font-family="Arial, sans-serif" font-size="22" font-weight="700" fill="#162033">North Peak Roofing</text>
    <text x="400" y="184" font-family="Arial, sans-serif" font-size="15" fill="#6b7181">Repairs • Replacements • Inspections • Financing</text>
    <rect x="872" y="164" width="168" height="34" rx="17" fill="#e86c3a"/>
    <text x="898" y="186" font-family="Arial, sans-serif" font-size="14" font-weight="700" fill="#fff">Get roof quote</text>

    <rect x="160" y="228" width="430" height="236" rx="28" fill="#fff" stroke="#f0d7bf"/>
    <text x="194" y="280" font-family="Arial, sans-serif" font-size="46" font-weight="700" fill="#182033">Fast roof repairs</text>
    <text x="194" y="334" font-family="Arial, sans-serif" font-size="46" font-weight="700" fill="#182033">for homes that need</text>
    <text x="194" y="388" font-family="Arial, sans-serif" font-size="46" font-weight="700" fill="#182033">help now.</text>
    <rect x="194" y="414" width="152" height="34" rx="17" fill="#e86c3a"/>
    <text x="220" y="436" font-family="Arial, sans-serif" font-size="14" font-weight="700" fill="#fff">Book inspection</text>
    <rect x="356" y="414" width="146" height="34" rx="17" fill="#fff" stroke="#f1c8a7"/>
    <text x="384" y="436" font-family="Arial, sans-serif" font-size="14" font-weight="700" fill="#c46331">See projects</text>

    <rect x="618" y="228" width="414" height="236" rx="30" fill="#1f2c42"/>
    <text x="650" y="272" font-family="Arial, sans-serif" font-size="19" font-weight="700" fill="#fff">Storm-ready team</text>
    <text x="650" y="300" font-family="Arial, sans-serif" font-size="14" fill="#bed0ee">Inspection photos • leak notes • same-day dispatch</text>
    <polygon points="646,402 748,324 850,402 952,324 1002,358 1002,436 646,436" fill="#ffb86d"/>
    <polygon points="646,402 748,324 850,402 952,324 982,346 880,422 748,346 704,378" fill="#e86c3a"/>
    <rect x="764" y="396" width="106" height="104" rx="12" fill="#ffe9d4" stroke="#c96a39" stroke-width="4"/>
    <rect x="802" y="430" width="30" height="70" fill="#7b3119"/>
    <rect x="918" y="242" width="74" height="48" rx="14" fill="#fff"/>
    <text x="932" y="273" font-family="Arial, sans-serif" font-size="18" font-weight="700" fill="#e86c3a">24/7</text>

    <rect x="160" y="496" width="224" height="92" rx="20" fill="#fff" stroke="#ffb86d"/>
    <rect x="178" y="514" width="46" height="46" rx="12" fill="#ffb86d"/>
    <text x="242" y="530" font-family="Arial, sans-serif" font-size="19" font-weight="700" fill="#162033">Inspection</text>
    <text x="242" y="556" font-family="Arial, sans-serif" font-size="14" fill="#6b7181">photo checklist</text>

    <rect x="398" y="496" width="224" height="92" rx="20" fill="#fff" stroke="#e86c3a"/>
    <rect x="416" y="514" width="46" height="46" rx="12" fill="#e86c3a"/>
    <text x="480" y="530" font-family="Arial, sans-serif" font-size="19" font-weight="700" fill="#162033">Repairs</text>
    <text x="480" y="556" font-family="Arial, sans-serif" font-size="14" fill="#6b7181">same-day slots</text>

    <rect x="636" y="496" width="224" height="92" rx="20" fill="#fff" stroke="#ffcf94"/>
    <rect x="654" y="514" width="46" height="46" rx="12" fill="#ffcf94"/>
    <text x="718" y="530" font-family="Arial, sans-serif" font-size="19" font-weight="700" fill="#162033">Replacement</text>
    <text x="718" y="556" font-family="Arial, sans-serif" font-size="14" fill="#6b7181">warranty options</text>
  </g>
</svg>